<svg width="1000" height="1000" viewBox="0 0 1000 1000" fill="none" xmlns="http://www.w3.org/2000/svg">
<!-- Exact recreation of your uploaded illustration -->

<!-- Background -->
<rect width="1000" height="1000" fill="#f8fafc"/>

<!-- ID Card/Interface in top left -->
<g transform="translate(120, 140)">
  <!-- Card shadow -->
  <rect x="10" y="10" width="380" height="220" rx="20" fill="#000000"/>
  <!-- Main card -->
  <rect x="0" y="0" width="380" height="220" rx="20" fill="#ffffff" stroke="#000000" stroke-width="6"/>
  
  <!-- Card elements -->
  <rect x="40" y="40" width="60" height="60" rx="8" fill="#000000"/>
  <rect x="120" y="50" width="200" height="15" rx="8" fill="#e2e8f0"/>
  <rect x="120" y="80" width="150" height="15" rx="8" fill="#e2e8f0"/>
  <rect x="120" y="110" width="180" height="15" rx="8" fill="#e2e8f0"/>
</g>

<!-- Person with scanner -->
<g transform="translate(50, 380)">
  <!-- Hair/head shape -->
  <path d="M75 50 Q120 15 165 50 Q165 45 155 35 Q145 25 125 20 Q105 20 85 35 Q75 45 75 50" fill="#000000"/>
  
  <!-- Face -->
  <circle cx="120" cy="80" r="45" fill="#000000"/>
  
  <!-- Body -->
  <rect x="90" y="120" width="60" height="120" rx="30" fill="#ffffff" stroke="#000000" stroke-width="4"/>
  
  <!-- Left arm -->
  <ellipse cx="60" cy="160" rx="18" ry="45" fill="#ffffff" stroke="#000000" stroke-width="4"/>
  <!-- Right arm -->
  <ellipse cx="180" cy="160" rx="18" ry="45" fill="#ffffff" stroke="#000000" stroke-width="4"/>
  
  <!-- Legs -->
  <ellipse cx="105" cy="280" rx="18" ry="55" fill="#000000"/>
  <ellipse cx="135" cy="280" rx="18" ry="55" fill="#000000"/>
  
  <!-- Shoes -->
  <ellipse cx="105" cy="340" rx="25" ry="12" fill="#000000"/>
  <ellipse cx="135" cy="340" rx="25" ry="12" fill="#000000"/>
  
  <!-- Scanner device in hand -->
  <g transform="translate(170, 140)">
    <rect x="0" y="0" width="60" height="30" rx="15" fill="#000000"/>
    <rect x="10" y="8" width="40" height="14" rx="2" fill="#e2e8f0"/>
    
    <!-- Scanner beam lines pointing to barcode -->
    <line x1="60" y1="15" x2="280" y2="15" stroke="#dc2626" stroke-width="3"/>
    <line x1="60" y1="15" x2="270" y2="8" stroke="#dc2626" stroke-width="2" opacity="0.7"/>
    <line x1="60" y1="15" x2="270" y2="22" stroke="#dc2626" stroke-width="2" opacity="0.7"/>
    <line x1="60" y1="15" x2="260" y2="5" stroke="#dc2626" stroke-width="1" opacity="0.5"/>
    <line x1="60" y1="15" x2="260" y2="25" stroke="#dc2626" stroke-width="1" opacity="0.5"/>
  </g>
</g>

<!-- Large box -->
<g transform="translate(470, 180)">
  <!-- Box shadow/3D effect -->
  <path d="M20 120 L100 40 L520 40 L440 120 Z" fill="#e2e8f0"/>
  <path d="M440 120 L520 40 L520 360 L440 440 Z" fill="#cbd5e1"/>
  
  <!-- Main box -->
  <rect x="0" y="100" width="440" height="340" fill="#ffffff" stroke="#000000" stroke-width="6"/>
  
  <!-- Top flap -->
  <rect x="70" y="60" width="300" height="40" fill="#000000"/>
  
  <!-- Barcode on box -->
  <g transform="translate(80, 200)">
    <rect x="0" y="0" width="200" height="120" fill="#ffffff" stroke="#000000" stroke-width="3"/>
    <!-- Barcode vertical lines -->
    <rect x="20" y="25" width="4" height="70" fill="#000000"/>
    <rect x="28" y="25" width="2" height="70" fill="#000000"/>
    <rect x="33" y="25" width="6" height="70" fill="#000000"/>
    <rect x="42" y="25" width="2" height="70" fill="#000000"/>
    <rect x="47" y="25" width="4" height="70" fill="#000000"/>
    <rect x="54" y="25" width="2" height="70" fill="#000000"/>
    <rect x="59" y="25" width="7" height="70" fill="#000000"/>
    <rect x="69" y="25" width="2" height="70" fill="#000000"/>
    <rect x="74" y="25" width="4" height="70" fill="#000000"/>
    <rect x="81" y="25" width="2" height="70" fill="#000000"/>
    <rect x="86" y="25" width="6" height="70" fill="#000000"/>
    <rect x="95" y="25" width="2" height="70" fill="#000000"/>
    <rect x="100" y="25" width="4" height="70" fill="#000000"/>
    <rect x="107" y="25" width="2" height="70" fill="#000000"/>
    <rect x="112" y="25" width="6" height="70" fill="#000000"/>
    <rect x="121" y="25" width="2" height="70" fill="#000000"/>
    <rect x="126" y="25" width="4" height="70" fill="#000000"/>
    <rect x="133" y="25" width="2" height="70" fill="#000000"/>
    <rect x="138" y="25" width="7" height="70" fill="#000000"/>
    <rect x="148" y="25" width="2" height="70" fill="#000000"/>
    <rect x="153" y="25" width="4" height="70" fill="#000000"/>
    <rect x="160" y="25" width="2" height="70" fill="#000000"/>
    <rect x="165" y="25" width="6" height="70" fill="#000000"/>
  </g>
</g>

<!-- Medium box stack -->
<g transform="translate(720, 350)">
  <!-- Box shadow -->
  <path d="M15 15 L45 -15 L245 -15 L215 15 Z" fill="#e2e8f0"/>
  <path d="M215 15 L245 -15 L245 155 L215 185 Z" fill="#cbd5e1"/>
  
  <!-- Main box -->
  <rect x="0" y="0" width="215" height="185" fill="#ffffff" stroke="#000000" stroke-width="4"/>
  
  <!-- Top flap -->
  <rect x="35" y="-25" width="145" height="25" fill="#000000"/>
  
  <!-- Barcode on medium box -->
  <g transform="translate(35, 60)">
    <rect x="0" y="0" width="140" height="80" fill="#ffffff" stroke="#000000" stroke-width="2"/>
    <!-- Medium barcode lines -->
    <rect x="15" y="20" width="3" height="40" fill="#000000"/>
    <rect x="21" y="20" width="1" height="40" fill="#000000"/>
    <rect x="25" y="20" width="4" height="40" fill="#000000"/>
    <rect x="32" y="20" width="1" height="40" fill="#000000"/>
    <rect x="36" y="20" width="3" height="40" fill="#000000"/>
    <rect x="42" y="20" width="1" height="40" fill="#000000"/>
    <rect x="46" y="20" width="5" height="40" fill="#000000"/>
    <rect x="54" y="20" width="1" height="40" fill="#000000"/>
    <rect x="58" y="20" width="3" height="40" fill="#000000"/>
    <rect x="64" y="20" width="1" height="40" fill="#000000"/>
    <rect x="68" y="20" width="4" height="40" fill="#000000"/>
    <rect x="75" y="20" width="1" height="40" fill="#000000"/>
    <rect x="79" y="20" width="3" height="40" fill="#000000"/>
    <rect x="85" y="20" width="1" height="40" fill="#000000"/>
    <rect x="89" y="20" width="4" height="40" fill="#000000"/>
    <rect x="96" y="20" width="1" height="40" fill="#000000"/>
    <rect x="100" y="20" width="3" height="40" fill="#000000"/>
    <rect x="106" y="20" width="1" height="40" fill="#000000"/>
    <rect x="110" y="20" width="5" height="40" fill="#000000"/>
    <rect x="118" y="20" width="1" height="40" fill="#000000"/>
    <rect x="122" y="20" width="3" height="40" fill="#000000"/>
  </g>
</g>

<!-- Small box on top -->
<g transform="translate(790, 520)">
  <!-- Box shadow -->
  <path d="M10 10 L30 -10 L160 -10 L140 10 Z" fill="#e2e8f0"/>
  <path d="M140 10 L160 -10 L160 100 L140 120 Z" fill="#cbd5e1"/>
  
  <!-- Main box -->
  <rect x="0" y="0" width="140" height="120" fill="#ffffff" stroke="#000000" stroke-width="3"/>
  
  <!-- Top flap -->
  <rect x="25" y="-15" width="90" height="15" fill="#000000"/>
  
  <!-- Small barcode -->
  <g transform="translate(25, 35)">
    <rect x="0" y="0" width="90" height="55" fill="#ffffff" stroke="#000000" stroke-width="1"/>
    <rect x="10" y="12" width="2" height="30" fill="#000000"/>
    <rect x="15" y="12" width="3" height="30" fill="#000000"/>
    <rect x="21" y="12" width="1" height="30" fill="#000000"/>
    <rect x="25" y="12" width="4" height="30" fill="#000000"/>
    <rect x="32" y="12" width="1" height="30" fill="#000000"/>
    <rect x="36" y="12" width="2" height="30" fill="#000000"/>
    <rect x="41" y="12" width="1" height="30" fill="#000000"/>
    <rect x="45" y="12" width="4" height="30" fill="#000000"/>
    <rect x="52" y="12" width="1" height="30" fill="#000000"/>
    <rect x="56" y="12" width="2" height="30" fill="#000000"/>
    <rect x="61" y="12" width="1" height="30" fill="#000000"/>
    <rect x="65" y="12" width="4" height="30" fill="#000000"/>
    <rect x="72" y="12" width="1" height="30" fill="#000000"/>
    <rect x="76" y="12" width="2" height="30" fill="#000000"/>
  </g>
</g>

<!-- Gears -->
<g transform="translate(350, 600)">
  <!-- Large gear -->
  <circle cx="0" cy="0" r="70" fill="#000000"/>
  <circle cx="0" cy="0" r="35" fill="#f8fafc"/>
  <!-- Large gear teeth -->
  <rect x="-6" y="-76" width="12" height="12" fill="#000000"/>
  <rect x="-6" y="64" width="12" height="12" fill="#000000"/>
  <rect x="-76" y="-6" width="12" height="12" fill="#000000"/>
  <rect x="64" y="-6" width="12" height="12" fill="#000000"/>
  <g transform="rotate(45)">
    <rect x="-6" y="-76" width="12" height="12" fill="#000000"/>
    <rect x="-6" y="64" width="12" height="12" fill="#000000"/>
    <rect x="-76" y="-6" width="12" height="12" fill="#000000"/>
    <rect x="64" y="-6" width="12" height="12" fill="#000000"/>
  </g>
  
  <!-- Small gear -->
  <g transform="translate(100, 100)">
    <circle cx="0" cy="0" r="50" fill="#000000"/>
    <circle cx="0" cy="0" r="25" fill="#f8fafc"/>
    <!-- Small gear teeth -->
    <rect x="-4" y="-56" width="8" height="8" fill="#000000"/>
    <rect x="-4" y="48" width="8" height="8" fill="#000000"/>
    <rect x="-56" y="-4" width="8" height="8" fill="#000000"/>
    <rect x="48" y="-4" width="8" height="8" fill="#000000"/>
    <g transform="rotate(45)">
      <rect x="-4" y="-56" width="8" height="8" fill="#000000"/>
      <rect x="-4" y="48" width="8" height="8" fill="#000000"/>
      <rect x="-56" y="-4" width="8" height="8" fill="#000000"/>
      <rect x="48" y="-4" width="8" height="8" fill="#000000"/>
    </g>
  </g>
</g>

<!-- Small circle element -->
<circle cx="350" cy="780" r="20" fill="none" stroke="#000000" stroke-width="4"/>
</svg>