<svg width="1000" height="1000" viewBox="0 0 1000 1000" fill="none" xmlns="http://www.w3.org/2000/svg">
<!-- This should be the exact SVG content from your uploaded image -->
<!-- I need to recreate this based on your uploaded illustration -->

<!-- Background -->
<rect width="1000" height="1000" fill="#f8fafc"/>

<!-- ID Cards/Interface in top left -->
<g transform="translate(120, 140)">
  <!-- Outer card -->
  <rect x="10" y="10" width="380" height="220" rx="20" fill="#1e1e1e" stroke="none"/>
  <!-- Inner card -->
  <rect x="0" y="0" width="380" height="220" rx="20" fill="#ffffff" stroke="#1e1e1e" stroke-width="8"/>
  
  <!-- Card content -->
  <rect x="40" y="40" width="60" height="60" rx="8" fill="#1e1e1e"/>
  <rect x="120" y="50" width="200" height="15" rx="8" fill="#e2e8f0"/>
  <rect x="120" y="80" width="150" height="15" rx="8" fill="#e2e8f0"/>
  <rect x="120" y="110" width="180" height="15" rx="8" fill="#e2e8f0"/>
</g>

<!-- Person with barcode scanner -->
<g transform="translate(50, 380)">
  <!-- Head/Hair -->
  <path d="M75 50 C75 25, 95 15, 120 15 C145 15, 165 25, 165 50 C165 45, 155 35, 145 30 C135 25, 125 25, 115 25 C105 25, 95 25, 85 30 C75 35, 75 45, 75 50" fill="#1e1e1e"/>
  
  <!-- Face -->
  <circle cx="120" cy="80" r="45" fill="#1e1e1e"/>
  
  <!-- Body -->
  <rect x="90" y="120" width="60" height="120" rx="30" fill="#ffffff" stroke="#1e1e1e" stroke-width="4"/>
  
  <!-- Arms -->
  <ellipse cx="60" cy="160" rx="18" ry="45" fill="#ffffff" stroke="#1e1e1e" stroke-width="4"/>
  <ellipse cx="180" cy="160" rx="18" ry="45" fill="#ffffff" stroke="#1e1e1e" stroke-width="4"/>
  
  <!-- Legs -->
  <ellipse cx="105" cy="280" rx="18" ry="55" fill="#1e1e1e"/>
  <ellipse cx="135" cy="280" rx="18" ry="55" fill="#1e1e1e"/>
  
  <!-- Feet -->
  <ellipse cx="105" cy="340" rx="25" ry="12" fill="#1e1e1e"/>
  <ellipse cx="135" cy="340" rx="25" ry="12" fill="#1e1e1e"/>
  
  <!-- Barcode Scanner in hand -->
  <g transform="translate(170, 140)">
    <rect x="0" y="0" width="60" height="30" rx="15" fill="#1e1e1e"/>
    <rect x="10" y="8" width="40" height="14" rx="2" fill="#e2e8f0"/>
    <!-- Scanner beam lines -->
    <line x1="60" y1="15" x2="280" y2="15" stroke="#dc2626" stroke-width="3"/>
    <line x1="60" y1="15" x2="270" y2="8" stroke="#dc2626" stroke-width="2" opacity="0.7"/>
    <line x1="60" y1="15" x2="270" y2="22" stroke="#dc2626" stroke-width="2" opacity="0.7"/>
    <line x1="60" y1="15" x2="260" y2="5" stroke="#dc2626" stroke-width="1" opacity="0.5"/>
    <line x1="60" y1="15" x2="260" y2="25" stroke="#dc2626" stroke-width="1" opacity="0.5"/>
  </g>
</g>

<!-- Large Box with barcode -->
<g transform="translate(470, 180)">
  <!-- Box shadow/depth -->
  <path d="M20 120 L100 40 L500 40 L420 120 Z" fill="#e2e8f0"/>
  <path d="M420 120 L500 40 L500 340 L420 420 Z" fill="#cbd5e1"/>
  
  <!-- Main box -->
  <rect x="0" y="100" width="420" height="320" fill="#ffffff" stroke="#1e1e1e" stroke-width="6"/>
  
  <!-- Top flaps -->
  <rect x="60" y="60" width="300" height="40" fill="#1e1e1e"/>
  
  <!-- Barcode on box -->
  <g transform="translate(80, 200)">
    <rect x="0" y="0" width="180" height="100" fill="#ffffff" stroke="#1e1e1e" stroke-width="3"/>
    <!-- Barcode lines -->
    <rect x="15" y="20" width="4" height="60" fill="#1e1e1e"/>
    <rect x="22" y="20" width="2" height="60" fill="#1e1e1e"/>
    <rect x="27" y="20" width="5" height="60" fill="#1e1e1e"/>
    <rect x="35" y="20" width="2" height="60" fill="#1e1e1e"/>
    <rect x="40" y="20" width="4" height="60" fill="#1e1e1e"/>
    <rect x="47" y="20" width="2" height="60" fill="#1e1e1e"/>
    <rect x="52" y="20" width="6" height="60" fill="#1e1e1e"/>
    <rect x="61" y="20" width="2" height="60" fill="#1e1e1e"/>
    <rect x="66" y="20" width="4" height="60" fill="#1e1e1e"/>
    <rect x="73" y="20" width="2" height="60" fill="#1e1e1e"/>
    <rect x="78" y="20" width="5" height="60" fill="#1e1e1e"/>
    <rect x="86" y="20" width="2" height="60" fill="#1e1e1e"/>
    <rect x="91" y="20" width="4" height="60" fill="#1e1e1e"/>
    <rect x="98" y="20" width="2" height="60" fill="#1e1e1e"/>
    <rect x="103" y="20" width="5" height="60" fill="#1e1e1e"/>
    <rect x="111" y="20" width="2" height="60" fill="#1e1e1e"/>
    <rect x="116" y="20" width="4" height="60" fill="#1e1e1e"/>
    <rect x="123" y="20" width="2" height="60" fill="#1e1e1e"/>
    <rect x="128" y="20" width="6" height="60" fill="#1e1e1e"/>
    <rect x="137" y="20" width="2" height="60" fill="#1e1e1e"/>
    <rect x="142" y="20" width="4" height="60" fill="#1e1e1e"/>
    <rect x="149" y="20" width="2" height="60" fill="#1e1e1e"/>
    <rect x="154" y="20" width="5" height="60" fill="#1e1e1e"/>
  </g>
</g>

<!-- Medium Box -->
<g transform="translate(720, 380)">
  <!-- Box shadow -->
  <path d="M15 15 L45 -15 L225 -15 L195 15 Z" fill="#e2e8f0"/>
  <path d="M195 15 L225 -15 L225 135 L195 165 Z" fill="#cbd5e1"/>
  
  <!-- Main box -->
  <rect x="0" y="0" width="195" height="165" fill="#ffffff" stroke="#1e1e1e" stroke-width="4"/>
  
  <!-- Top flap -->
  <rect x="30" y="-25" width="135" height="25" fill="#1e1e1e"/>
  
  <!-- Barcode -->
  <g transform="translate(30, 50)">
    <rect x="0" y="0" width="120" height="70" fill="#ffffff" stroke="#1e1e1e" stroke-width="2"/>
    <!-- Barcode lines -->
    <rect x="10" y="15" width="2" height="40" fill="#1e1e1e"/>
    <rect x="15" y="15" width="1" height="40" fill="#1e1e1e"/>
    <rect x="19" y="15" width="3" height="40" fill="#1e1e1e"/>
    <rect x="25" y="15" width="1" height="40" fill="#1e1e1e"/>
    <rect x="29" y="15" width="2" height="40" fill="#1e1e1e"/>
    <rect x="34" y="15" width="1" height="40" fill="#1e1e1e"/>
    <rect x="38" y="15" width="4" height="40" fill="#1e1e1e"/>
    <rect x="45" y="15" width="1" height="40" fill="#1e1e1e"/>
    <rect x="49" y="15" width="2" height="40" fill="#1e1e1e"/>
    <rect x="54" y="15" width="1" height="40" fill="#1e1e1e"/>
    <rect x="58" y="15" width="3" height="40" fill="#1e1e1e"/>
    <rect x="64" y="15" width="1" height="40" fill="#1e1e1e"/>
    <rect x="68" y="15" width="2" height="40" fill="#1e1e1e"/>
    <rect x="73" y="15" width="1" height="40" fill="#1e1e1e"/>
    <rect x="77" y="15" width="3" height="40" fill="#1e1e1e"/>
    <rect x="83" y="15" width="1" height="40" fill="#1e1e1e"/>
    <rect x="87" y="15" width="2" height="40" fill="#1e1e1e"/>
    <rect x="92" y="15" width="1" height="40" fill="#1e1e1e"/>
    <rect x="96" y="15" width="4" height="40" fill="#1e1e1e"/>
    <rect x="103" y="15" width="1" height="40" fill="#1e1e1e"/>
    <rect x="107" y="15" width="2" height="40" fill="#1e1e1e"/>
  </g>
</g>

<!-- Small Box -->
<g transform="translate(780, 550)">
  <!-- Box shadow -->
  <path d="M10 10 L30 -10 L150 -10 L130 10 Z" fill="#e2e8f0"/>
  <path d="M130 10 L150 -10 L150 90 L130 110 Z" fill="#cbd5e1"/>
  
  <!-- Main box -->
  <rect x="0" y="0" width="130" height="110" fill="#ffffff" stroke="#1e1e1e" stroke-width="3"/>
  
  <!-- Top flap -->
  <rect x="20" y="-15" width="90" height="15" fill="#1e1e1e"/>
  
  <!-- Small barcode -->
  <g transform="translate(20, 30)">
    <rect x="0" y="0" width="80" height="50" fill="#ffffff" stroke="#1e1e1e" stroke-width="1"/>
    <rect x="8" y="10" width="1" height="30" fill="#1e1e1e"/>
    <rect x="12" y="10" width="2" height="30" fill="#1e1e1e"/>
    <rect x="17" y="10" width="1" height="30" fill="#1e1e1e"/>
    <rect x="21" y="10" width="3" height="30" fill="#1e1e1e"/>
    <rect x="27" y="10" width="1" height="30" fill="#1e1e1e"/>
    <rect x="31" y="10" width="2" height="30" fill="#1e1e1e"/>
    <rect x="36" y="10" width="1" height="30" fill="#1e1e1e"/>
    <rect x="40" y="10" width="3" height="30" fill="#1e1e1e"/>
    <rect x="46" y="10" width="1" height="30" fill="#1e1e1e"/>
    <rect x="50" y="10" width="2" height="30" fill="#1e1e1e"/>
    <rect x="55" y="10" width="1" height="30" fill="#1e1e1e"/>
    <rect x="59" y="10" width="3" height="30" fill="#1e1e1e"/>
    <rect x="65" y="10" width="1" height="30" fill="#1e1e1e"/>
    <rect x="69" y="10" width="2" height="30" fill="#1e1e1e"/>
  </g>
</g>

<!-- Gears -->
<g transform="translate(380, 600)">
  <!-- Large gear -->
  <circle cx="0" cy="0" r="70" fill="#1e1e1e"/>
  <circle cx="0" cy="0" r="35" fill="#f8fafc"/>
  <!-- Gear teeth -->
  <rect x="-6" y="-76" width="12" height="12" fill="#1e1e1e"/>
  <rect x="-6" y="64" width="12" height="12" fill="#1e1e1e"/>
  <rect x="-76" y="-6" width="12" height="12" fill="#1e1e1e"/>
  <rect x="64" y="-6" width="12" height="12" fill="#1e1e1e"/>
  <g transform="rotate(45)">
    <rect x="-6" y="-76" width="12" height="12" fill="#1e1e1e"/>
    <rect x="-6" y="64" width="12" height="12" fill="#1e1e1e"/>
    <rect x="-76" y="-6" width="12" height="12" fill="#1e1e1e"/>
    <rect x="64" y="-6" width="12" height="12" fill="#1e1e1e"/>
  </g>
  
  <!-- Small gear -->
  <g transform="translate(90, 90)">
    <circle cx="0" cy="0" r="50" fill="#1e1e1e"/>
    <circle cx="0" cy="0" r="25" fill="#f8fafc"/>
    <rect x="-4" y="-56" width="8" height="8" fill="#1e1e1e"/>
    <rect x="-4" y="48" width="8" height="8" fill="#1e1e1e"/>
    <rect x="-56" y="-4" width="8" height="8" fill="#1e1e1e"/>
    <rect x="48" y="-4" width="8" height="8" fill="#1e1e1e"/>
    <g transform="rotate(45)">
      <rect x="-4" y="-56" width="8" height="8" fill="#1e1e1e"/>
      <rect x="-4" y="48" width="8" height="8" fill="#1e1e1e"/>
      <rect x="-56" y="-4" width="8" height="8" fill="#1e1e1e"/>
      <rect x="48" y="-4" width="8" height="8" fill="#1e1e1e"/>
    </g>
  </g>
</g>

<!-- Small circle element -->
<circle cx="350" cy="780" r="20" fill="none" stroke="#1e1e1e" stroke-width="4"/>
</svg>