<svg xmlns="http://www.w3.org/2000/svg" viewBox="0 0 1000 1000">
  <!-- Background -->
  <rect width="1000" height="1000" fill="#f8fafc"/>
  
  <!-- ID Card/Interface -->
  <g transform="translate(120, 140)">
    <rect x="0" y="0" width="380" height="220" rx="20" fill="#ffffff" stroke="#1e293b" stroke-width="8"/>
    <rect x="0" y="0" width="380" height="220" rx="20" fill="none" stroke="#1e293b" stroke-width="4" transform="translate(8, 8)"/>
    
    <!-- ID Card elements -->
    <rect x="40" y="40" width="60" height="60" rx="8" fill="#1e293b"/>
    <rect x="120" y="50" width="200" height="15" rx="8" fill="#e2e8f0"/>
    <rect x="120" y="80" width="150" height="15" rx="8" fill="#e2e8f0"/>
    <rect x="120" y="110" width="180" height="15" rx="8" fill="#e2e8f0"/>
  </g>
  
  <!-- Person -->
  <g transform="translate(50, 380)">
    <!-- Head -->
    <circle cx="120" cy="80" r="45" fill="#1e293b"/>
    <!-- Hair -->
    <path d="M80 60 Q120 20 160 60 Q160 40 140 30 Q120 25 100 30 Q80 40 80 60" fill="#1e293b"/>
    
    <!-- Body -->
    <rect x="90" y="120" width="60" height="120" rx="30" fill="#ffffff" stroke="#1e293b" stroke-width="3"/>
    
    <!-- Arms -->
    <ellipse cx="60" cy="160" rx="15" ry="40" fill="#ffffff" stroke="#1e293b" stroke-width="3"/>
    <ellipse cx="180" cy="160" rx="15" ry="40" fill="#ffffff" stroke="#1e293b" stroke-width="3"/>
    
    <!-- Legs -->
    <ellipse cx="105" cy="280" rx="15" ry="50" fill="#1e293b"/>
    <ellipse cx="135" cy="280" rx="15" ry="50" fill="#1e293b"/>
    
    <!-- Barcode Scanner in hand -->
    <g transform="translate(170, 140)">
      <rect x="0" y="0" width="60" height="30" rx="15" fill="#1e293b"/>
      <rect x="10" y="8" width="40" height="14" rx="2" fill="#e2e8f0"/>
      <!-- Scanner beam -->
      <line x1="60" y1="15" x2="300" y2="15" stroke="#dc2626" stroke-width="3"/>
      <line x1="60" y1="15" x2="290" y2="5" stroke="#dc2626" stroke-width="2" opacity="0.7"/>
      <line x1="60" y1="15" x2="290" y2="25" stroke="#dc2626" stroke-width="2" opacity="0.7"/>
    </g>
  </g>
  
  <!-- Large Box -->
  <g transform="translate(470, 180)">
    <!-- Main box -->
    <rect x="0" y="100" width="400" height="300" fill="#ffffff" stroke="#1e293b" stroke-width="4"/>
    <!-- Top face -->
    <path d="M0 100 L80 20 L480 20 L400 100 Z" fill="#f1f5f9" stroke="#1e293b" stroke-width="4"/>
    <!-- Right face -->
    <path d="M400 100 L480 20 L480 320 L400 400 Z" fill="#e2e8f0" stroke="#1e293b" stroke-width="4"/>
    <!-- Top flap -->
    <rect x="50" y="50" width="300" height="30" fill="#1e293b"/>
    
    <!-- Barcode on box -->
    <g transform="translate(50, 200)">
      <rect x="0" y="0" width="150" height="80" fill="#ffffff" stroke="#1e293b" stroke-width="2"/>
      <!-- Barcode lines -->
      <rect x="10" y="15" width="3" height="50" fill="#1e293b"/>
      <rect x="16" y="15" width="2" height="50" fill="#1e293b"/>
      <rect x="21" y="15" width="4" height="50" fill="#1e293b"/>
      <rect x="28" y="15" width="2" height="50" fill="#1e293b"/>
      <rect x="33" y="15" width="3" height="50" fill="#1e293b"/>
      <rect x="39" y="15" width="2" height="50" fill="#1e293b"/>
      <rect x="44" y="15" width="5" height="50" fill="#1e293b"/>
      <rect x="52" y="15" width="2" height="50" fill="#1e293b"/>
      <rect x="57" y="15" width="3" height="50" fill="#1e293b"/>
      <rect x="63" y="15" width="2" height="50" fill="#1e293b"/>
      <rect x="68" y="15" width="4" height="50" fill="#1e293b"/>
      <rect x="75" y="15" width="2" height="50" fill="#1e293b"/>
      <rect x="80" y="15" width="3" height="50" fill="#1e293b"/>
      <rect x="86" y="15" width="2" height="50" fill="#1e293b"/>
      <rect x="91" y="15" width="4" height="50" fill="#1e293b"/>
      <rect x="98" y="15" width="2" height="50" fill="#1e293b"/>
      <rect x="103" y="15" width="3" height="50" fill="#1e293b"/>
      <rect x="109" y="15" width="2" height="50" fill="#1e293b"/>
      <rect x="114" y="15" width="5" height="50" fill="#1e293b"/>
      <rect x="122" y="15" width="2" height="50" fill="#1e293b"/>
      <rect x="127" y="15" width="3" height="50" fill="#1e293b"/>
      <rect x="133" y="15" width="2" height="50" fill="#1e293b"/>
    </g>
  </g>
  
  <!-- Medium Box -->
  <g transform="translate(620, 350)">
    <rect x="0" y="0" width="180" height="150" fill="#ffffff" stroke="#1e293b" stroke-width="3"/>
    <path d="M0 0 L30 -30 L210 -30 L180 0 Z" fill="#f1f5f9" stroke="#1e293b" stroke-width="3"/>
    <path d="M180 0 L210 -30 L210 120 L180 150 Z" fill="#e2e8f0" stroke="#1e293b" stroke-width="3"/>
    <rect x="20" y="-20" width="140" height="15" fill="#1e293b"/>
    
    <!-- Barcode -->
    <g transform="translate(20, 40)">
      <rect x="0" y="0" width="100" height="60" fill="#ffffff" stroke="#1e293b" stroke-width="2"/>
      <!-- Smaller barcode lines -->
      <rect x="8" y="10" width="2" height="40" fill="#1e293b"/>
      <rect x="12" y="10" width="1" height="40" fill="#1e293b"/>
      <rect x="15" y="10" width="3" height="40" fill="#1e293b"/>
      <rect x="20" y="10" width="1" height="40" fill="#1e293b"/>
      <rect x="23" y="10" width="2" height="40" fill="#1e293b"/>
      <rect x="27" y="10" width="1" height="40" fill="#1e293b"/>
      <rect x="30" y="10" width="4" height="40" fill="#1e293b"/>
      <rect x="36" y="10" width="1" height="40" fill="#1e293b"/>
      <rect x="39" y="10" width="2" height="40" fill="#1e293b"/>
      <rect x="43" y="10" width="1" height="40" fill="#1e293b"/>
      <rect x="46" y="10" width="3" height="40" fill="#1e293b"/>
      <rect x="51" y="10" width="1" height="40" fill="#1e293b"/>
      <rect x="54" y="10" width="2" height="40" fill="#1e293b"/>
      <rect x="58" y="10" width="1" height="40" fill="#1e293b"/>
      <rect x="61" y="10" width="3" height="40" fill="#1e293b"/>
      <rect x="66" y="10" width="1" height="40" fill="#1e293b"/>
      <rect x="69" y="10" width="2" height="40" fill="#1e293b"/>
      <rect x="73" y="10" width="1" height="40" fill="#1e293b"/>
      <rect x="76" y="10" width="4" height="40" fill="#1e293b"/>
      <rect x="82" y="10" width="1" height="40" fill="#1e293b"/>
      <rect x="85" y="10" width="2" height="40" fill="#1e293b"/>
      <rect x="89" y="10" width="1" height="40" fill="#1e293b"/>
    </g>
  </g>
  
  <!-- Small Box -->
  <g transform="translate(750, 500)">
    <rect x="0" y="0" width="120" height="100" fill="#ffffff" stroke="#1e293b" stroke-width="3"/>
    <path d="M0 0 L20 -20 L140 -20 L120 0 Z" fill="#f1f5f9" stroke="#1e293b" stroke-width="3"/>
    <path d="M120 0 L140 -20 L140 80 L120 100 Z" fill="#e2e8f0" stroke="#1e293b" stroke-width="3"/>
    <rect x="15" y="-15" width="90" height="10" fill="#1e293b"/>
    
    <!-- Small barcode -->
    <g transform="translate(15, 25)">
      <rect x="0" y="0" width="70" height="40" fill="#ffffff" stroke="#1e293b" stroke-width="1"/>
      <rect x="5" y="8" width="1" height="24" fill="#1e293b"/>
      <rect x="8" y="8" width="2" height="24" fill="#1e293b"/>
      <rect x="12" y="8" width="1" height="24" fill="#1e293b"/>
      <rect x="15" y="8" width="3" height="24" fill="#1e293b"/>
      <rect x="20" y="8" width="1" height="24" fill="#1e293b"/>
      <rect x="23" y="8" width="2" height="24" fill="#1e293b"/>
      <rect x="27" y="8" width="1" height="24" fill="#1e293b"/>
      <rect x="30" y="8" width="3" height="24" fill="#1e293b"/>
      <rect x="35" y="8" width="1" height="24" fill="#1e293b"/>
      <rect x="38" y="8" width="2" height="24" fill="#1e293b"/>
      <rect x="42" y="8" width="1" height="24" fill="#1e293b"/>
      <rect x="45" y="8" width="3" height="24" fill="#1e293b"/>
      <rect x="50" y="8" width="1" height="24" fill="#1e293b"/>
      <rect x="53" y="8" width="2" height="24" fill="#1e293b"/>
      <rect x="57" y="8" width="1" height="24" fill="#1e293b"/>
      <rect x="60" y="8" width="3" height="24" fill="#1e293b"/>
    </g>
  </g>
  
  <!-- Gears -->
  <g transform="translate(350, 580)">
    <!-- Large gear -->
    <circle cx="0" cy="0" r="60" fill="#1e293b"/>
    <circle cx="0" cy="0" r="30" fill="#f8fafc"/>
    <!-- Gear teeth -->
    <rect x="-5" y="-65" width="10" height="10" fill="#1e293b"/>
    <rect x="-5" y="55" width="10" height="10" fill="#1e293b"/>
    <rect x="-65" y="-5" width="10" height="10" fill="#1e293b"/>
    <rect x="55" y="-5" width="10" height="10" fill="#1e293b"/>
    <rect x="-45" y="-45" width="10" height="10" fill="#1e293b" transform="rotate(45)"/>
    <rect x="35" y="-45" width="10" height="10" fill="#1e293b" transform="rotate(-45)"/>
    <rect x="-45" y="35" width="10" height="10" fill="#1e293b" transform="rotate(-45)"/>
    <rect x="35" y="35" width="10" height="10" fill="#1e293b" transform="rotate(45)"/>
    
    <!-- Small gear -->
    <g transform="translate(80, 80)">
      <circle cx="0" cy="0" r="40" fill="#1e293b"/>
      <circle cx="0" cy="0" r="20" fill="#f8fafc"/>
      <rect x="-3" y="-43" width="6" height="6" fill="#1e293b"/>
      <rect x="-3" y="37" width="6" height="6" fill="#1e293b"/>
      <rect x="-43" y="-3" width="6" height="6" fill="#1e293b"/>
      <rect x="37" y="-3" width="6" height="6" fill="#1e293b"/>
      <rect x="-30" y="-30" width="6" height="6" fill="#1e293b" transform="rotate(45)"/>
      <rect x="24" y="-30" width="6" height="6" fill="#1e293b" transform="rotate(-45)"/>
      <rect x="-30" y="24" width="6" height="6" fill="#1e293b" transform="rotate(-45)"/>
      <rect x="24" y="24" width="6" height="6" fill="#1e293b" transform="rotate(45)"/>
    </g>
  </g>
  
  <!-- Small circle element -->
  <circle cx="320" cy="750" r="15" fill="none" stroke="#1e293b" stroke-width="3"/>
</svg>